<svg xmlns="http://www.w3.org/2000/svg" viewBox="0 0 48 48" shape-rendering="crispEdges">
  <rect width="48" height="48" rx="6" fill="#0A0A0F"/>
  <rect x="24" y="16" width="4" height="4" fill="#0a0a0f"/>
  <rect x="28" y="16" width="4" height="4" fill="#0a0a0f"/>
  <rect x="32" y="16" width="4" height="4" fill="#0a0a0f"/>
  <rect x="16" y="20" width="4" height="4" fill="#0a0a0f"/>
  <rect x="20" y="20" width="4" height="4" fill="#0a0a0f"/>
  <rect x="32" y="20" width="4" height="4" fill="#0a0a0f"/>
  <rect x="36" y="20" width="4" height="4" fill="#0a0a0f"/>
  <rect x="16" y="24" width="4" height="4" fill="#0a0a0f"/>
  <rect x="20" y="24" width="4" height="4" fill="#0a0a0f"/>
  <rect x="32" y="24" width="4" height="4" fill="#0a0a0f"/>
  <rect x="36" y="24" width="4" height="4" fill="#0a0a0f"/>
  <rect x="16" y="28" width="4" height="4" fill="#0a0a0f"/>
  <rect x="20" y="28" width="4" height="4" fill="#0a0a0f"/>
  <rect x="24" y="28" width="4" height="4" fill="#0a0a0f"/>
  <rect x="28" y="28" width="4" height="4" fill="#0a0a0f"/>
  <rect x="32" y="28" width="4" height="4" fill="#0a0a0f"/>
  <rect x="16" y="32" width="4" height="4" fill="#0a0a0f"/>
  <rect x="20" y="32" width="4" height="4" fill="#0a0a0f"/>
  <rect x="16" y="36" width="4" height="4" fill="#0a0a0f"/>
  <rect x="20" y="36" width="4" height="4" fill="#0a0a0f"/>
  <rect x="16" y="40" width="4" height="4" fill="#0a0a0f"/>
  <rect x="20" y="40" width="4" height="4" fill="#0a0a0f"/>
  <rect x="16" y="44" width="4" height="4" fill="#0a0a0f"/>
  <rect x="20" y="44" width="4" height="4" fill="#0a0a0f"/>
  <rect x="28" y="12" width="4" height="4" fill="#2a8f5f"/>
  <rect x="28" y="16" width="4" height="4" fill="#2a8f5f"/>
  <rect x="32" y="16" width="4" height="4" fill="#2a8f5f"/>
  <rect x="12" y="20" width="4" height="4" fill="#2a8f5f"/>
  <rect x="16" y="20" width="4" height="4" fill="#2a8f5f"/>
  <rect x="28" y="20" width="4" height="4" fill="#2a8f5f"/>
  <rect x="32" y="20" width="4" height="4" fill="#2a8f5f"/>
  <rect x="12" y="24" width="4" height="4" fill="#2a8f5f"/>
  <rect x="16" y="24" width="4" height="4" fill="#2a8f5f"/>
  <rect x="20" y="24" width="4" height="4" fill="#2a8f5f"/>
  <rect x="24" y="24" width="4" height="4" fill="#2a8f5f"/>
  <rect x="28" y="24" width="4" height="4" fill="#2a8f5f"/>
  <rect x="12" y="28" width="4" height="4" fill="#2a8f5f"/>
  <rect x="16" y="28" width="4" height="4" fill="#2a8f5f"/>
  <rect x="12" y="32" width="4" height="4" fill="#2a8f5f"/>
  <rect x="16" y="32" width="4" height="4" fill="#2a8f5f"/>
  <rect x="12" y="36" width="4" height="4" fill="#2a8f5f"/>
  <rect x="16" y="36" width="4" height="4" fill="#2a8f5f"/>
  <rect x="12" y="40" width="4" height="4" fill="#2a8f5f"/>
  <rect x="16" y="40" width="4" height="4" fill="#2a8f5f"/>
  <rect x="28" y="12" width="4" height="4" fill="#2a8f5f"/>
  <rect x="24" y="16" width="4" height="4" fill="#2a8f5f"/>
  <rect x="28" y="16" width="4" height="4" fill="#2a8f5f"/>
  <rect x="12" y="20" width="4" height="4" fill="#2a8f5f"/>
  <rect x="16" y="20" width="4" height="4" fill="#2a8f5f"/>
  <rect x="20" y="20" width="4" height="4" fill="#2a8f5f"/>
  <rect x="24" y="20" width="4" height="4" fill="#2a8f5f"/>
  <rect x="12" y="24" width="4" height="4" fill="#2a8f5f"/>
  <rect x="12" y="28" width="4" height="4" fill="#2a8f5f"/>
  <rect x="12" y="32" width="4" height="4" fill="#2a8f5f"/>
  <rect x="8" y="36" width="4" height="4" fill="#2a8f5f"/>
  <rect x="12" y="36" width="4" height="4" fill="#2a8f5f"/>
  <rect x="4" y="4" width="4" height="4" fill="#00FF88"/>
  <rect x="8" y="4" width="4" height="4" fill="#00FF88"/>
  <rect x="12" y="4" width="4" height="4" fill="#00FF88"/>
  <rect x="16" y="4" width="4" height="4" fill="#00FF88"/>
  <rect x="20" y="4" width="4" height="4" fill="#00FF88"/>
  <rect x="4" y="8" width="4" height="4" fill="#00FF88"/>
  <rect x="8" y="8" width="4" height="4" fill="#00FF88"/>
  <rect x="20" y="8" width="4" height="4" fill="#00FF88"/>
  <rect x="24" y="8" width="4" height="4" fill="#00FF88"/>
  <rect x="4" y="12" width="4" height="4" fill="#00FF88"/>
  <rect x="8" y="12" width="4" height="4" fill="#00FF88"/>
  <rect x="20" y="12" width="4" height="4" fill="#00FF88"/>
  <rect x="24" y="12" width="4" height="4" fill="#00FF88"/>
  <rect x="4" y="16" width="4" height="4" fill="#00FF88"/>
  <rect x="8" y="16" width="4" height="4" fill="#00FF88"/>
  <rect x="12" y="16" width="4" height="4" fill="#00FF88"/>
  <rect x="16" y="16" width="4" height="4" fill="#00FF88"/>
  <rect x="20" y="16" width="4" height="4" fill="#00FF88"/>
  <rect x="4" y="20" width="4" height="4" fill="#00FF88"/>
  <rect x="8" y="20" width="4" height="4" fill="#00FF88"/>
  <rect x="4" y="24" width="4" height="4" fill="#00FF88"/>
  <rect x="8" y="24" width="4" height="4" fill="#00FF88"/>
  <rect x="4" y="28" width="4" height="4" fill="#00FF88"/>
  <rect x="8" y="28" width="4" height="4" fill="#00FF88"/>
  <rect x="4" y="32" width="4" height="4" fill="#00FF88"/>
  <rect x="8" y="32" width="4" height="4" fill="#00FF88"/>
  <rect x="4" y="4" width="4" height="4" fill="#B5FFD6"/>
  <rect x="20" y="4" width="4" height="4" fill="#B5FFD6"/>
  <rect x="4" y="20" width="4" height="4" fill="#B5FFD6"/>
  <rect x="32" y="4" width="4" height="4" fill="#FFD700"/>
  <rect x="36" y="12" width="4" height="4" fill="#4ECDC4"/>
  <rect x="36" y="20" width="4" height="4" fill="#FFD700"/>
  <rect x="16" y="24" width="4" height="4" fill="#B968FF"/>
  <rect x="20" y="32" width="4" height="4" fill="#4ECDC4"/>
  <rect x="16" y="36" width="4" height="4" fill="#FF4D6A"/>
</svg>
